<svg width="99" height="23" viewBox="0 0 99 23" fill="none" xmlns="http://www.w3.org/2000/svg">
<path fill-rule="evenodd" clip-rule="evenodd" d="M95.6111 10.5637H94.2561C92.097 10.5637 90.9721 12.3018 90.9721 13.9628V21.4671H87.1394V7.24292H90.7696L90.8479 9.01906C91.6116 7.80272 92.9448 7.24292 94.5862 7.24292H95.8895L95.6111 10.5637Z" fill="white"/>
<path fill-rule="evenodd" clip-rule="evenodd" d="M69.3172 21.4668H65.4776V13.9476C65.4776 12.373 65.3431 10.3918 63.1323 10.3918C60.9997 10.3918 60.1531 11.9284 60.1531 13.7241V21.4668H56.3158V7.2427H59.8724L59.9529 9.06031C60.7167 7.84396 62.1361 6.896 64.2308 6.896C68.0945 6.896 69.3172 9.66042 69.3172 12.5366V21.4668Z" fill="white"/>
<path fill-rule="evenodd" clip-rule="evenodd" d="M54.6444 18.1438L54.3764 21.3782C53.4562 21.6304 52.6384 21.7157 51.6538 21.7157C48.0396 21.7157 46.9883 20.0535 46.9883 16.7201V3.23315H50.8267V7.24273H54.6444L54.3764 10.5635H50.8267V16.4321C50.8267 17.7683 51.1913 18.4916 52.5659 18.4916C53.1571 18.4916 53.8243 18.4202 54.6444 18.1438Z" fill="white"/>
<path fill-rule="evenodd" clip-rule="evenodd" d="M45.4331 10.5637H44.391C42.232 10.5637 41.1553 12.2984 41.1553 13.9628V21.4671H37.3226V7.24292H40.9552L41.0322 9.01906C41.796 7.80272 43.128 7.24292 44.7752 7.24292H45.7299L45.4331 10.5637Z" fill="white"/>
<path fill-rule="evenodd" clip-rule="evenodd" d="M20.0112 19.8923C17.4116 21.286 14.812 22.0877 11.3796 21.9887C5.01404 21.7929 0.42334 17.8374 0.42334 11.1533C0.42334 4.49675 5.06005 0.244141 11.3808 0.147386C14.5877 0.097857 17.4541 0.912211 19.6949 2.89338L16.9952 5.62786C15.608 4.44492 13.5686 3.75151 11.13 3.86324C7.15124 4.04523 4.75178 6.94442 4.70002 10.9252C4.64826 15.2366 7.28927 18.2106 11.4176 18.32C13.3615 18.3684 14.751 18.107 15.9577 17.5656V13.1563H11.6672L11.9547 9.53723H20.0112V19.8923Z" fill="white"/>
<path fill-rule="evenodd" clip-rule="evenodd" d="M85.4255 15.7042H74.9087C75.2077 17.5206 76.6341 18.6137 78.4112 18.6667C80.1389 18.7151 81.1028 18.1887 82.367 16.909L84.8699 18.8199C83.0928 21.0142 80.9591 21.817 78.5262 21.817C74.2484 21.817 71.0449 18.8199 71.0449 14.353C71.0449 9.8954 74.2323 6.896 78.3664 6.896C82.9226 6.896 85.4255 9.66042 85.4255 14.5673V15.7042ZM81.5813 12.7312C81.464 10.9367 80.1182 9.79865 78.2697 9.87236C76.4052 9.94378 75.1652 11.1567 74.9087 12.7312H81.5813Z" fill="white"/>
<path fill-rule="evenodd" clip-rule="evenodd" d="M34.9083 12.153V21.4668H31.5242L31.4414 20.0616C30.4038 21.3493 28.7164 21.817 26.9852 21.817C24.3741 21.817 21.9057 20.5235 21.8551 17.5206C21.778 12.7981 27.1612 12.4617 30.5407 12.4617H31.2194V12.2763C31.2194 10.7155 30.1853 9.87236 28.2448 9.87236C26.8484 9.87236 25.4726 10.4333 24.4547 11.3882L22.2404 9.13403C24.2511 7.50417 26.3411 6.896 28.5703 6.896C32.9689 6.896 34.9083 8.93246 34.9083 12.153ZM31.2194 15.2595H30.6822C28.8671 15.2688 25.6785 15.3574 25.6889 17.2591C25.7085 19.9349 31.2194 19.0883 31.2194 15.8539V15.2595Z" fill="white"/>
<path fill-rule="evenodd" clip-rule="evenodd" d="M93.0016 20.3687C93.0016 19.1989 93.8723 18.3148 94.9912 18.3148C96.0925 18.3148 96.9618 19.1989 96.9618 20.3687C96.9618 21.5593 96.0925 22.4374 94.9912 22.4374C93.8723 22.4374 93.0016 21.5593 93.0016 20.3687ZM94.9912 22.8467C96.3172 22.8467 97.4523 21.8019 97.4523 20.3687C97.4523 18.9518 96.3172 17.9055 94.9912 17.9055C93.6462 17.9055 92.5111 18.9518 92.5111 20.3687C92.5111 21.8019 93.6462 22.8467 94.9912 22.8467ZM94.4729 20.5681H94.9633L95.7064 21.8019H96.1821L95.3848 20.5473C95.7974 20.4952 96.116 20.2719 96.116 19.7614C96.116 19.1989 95.7827 18.9518 95.1175 18.9518H94.0485V21.8019H94.4729V20.5681ZM94.4729 20.196V19.3179H95.0544C95.3495 19.3179 95.6682 19.3819 95.6682 19.7332C95.6682 20.1722 95.3407 20.196 94.9854 20.196H94.4729Z" fill="white"/>
</svg>
