<svg width="108" height="21" viewBox="0 0 108 21" fill="none" xmlns="http://www.w3.org/2000/svg">
<mask id="path-1-inside-1_1086_6868" fill="white">
<path d="M0 10.5C0 4.70101 4.70101 0 10.5 0H97.5C103.299 0 108 4.70101 108 10.5V10.5C108 16.299 103.299 21 97.5 21H10.5C4.70101 21 0 16.299 0 10.5V10.5Z"/>
</mask>
<path d="M0 10.5C0 4.70101 4.70101 0 10.5 0H97.5C103.299 0 108 4.70101 108 10.5V10.5C108 16.299 103.299 21 97.5 21H10.5C4.70101 21 0 16.299 0 10.5V10.5Z" fill="black" fill-opacity="0.5"/>
<g clip-path="url(#paint0_angular_1086_6868_clip_path)" data-figma-skip-parse="true" mask="url(#path-1-inside-1_1086_6868)"><g transform="matrix(0.0138947 0.0355147 -0.182647 0.0683408 54 10.5)"><foreignObject x="-784.462" y="-784.462" width="1568.92" height="1568.92"><div xmlns="http://www.w3.org/1999/xhtml" style="background:conic-gradient(from 90deg,rgba(19, 18, 253, 1) 0deg,rgba(9, 107, 222, 1) 28.4348deg,rgba(13, 255, 80, 1) 147.972deg,rgba(142, 71, 254, 1) 183.001deg,rgba(123, 62, 254, 1) 286.601deg,rgba(20, 15, 255, 1) 358.917deg,rgba(19, 18, 253, 1) 360deg);height:100%;width:100%;opacity:1"></div></foreignObject></g></g><path d="M10.5 0.897436H97.5V-0.897436H10.5V0.897436ZM97.5 20.1026H10.5V21.8974H97.5V20.1026ZM10.5 20.1026C5.19665 20.1026 0.897436 15.8033 0.897436 10.5H-0.897436C-0.897436 16.7946 4.20537 21.8974 10.5 21.8974V20.1026ZM107.103 10.5C107.103 15.8033 102.803 20.1026 97.5 20.1026V21.8974C103.795 21.8974 108.897 16.7946 108.897 10.5H107.103ZM97.5 0.897436C102.803 0.897436 107.103 5.19665 107.103 10.5H108.897C108.897 4.20537 103.795 -0.897436 97.5 -0.897436V0.897436ZM10.5 -0.897436C4.20537 -0.897436 -0.897436 4.20537 -0.897436 10.5H0.897436C0.897436 5.19665 5.19665 0.897436 10.5 0.897436V-0.897436Z" data-figma-gradient-fill="{&#34;type&#34;:&#34;GRADIENT_ANGULAR&#34;,&#34;stops&#34;:[{&#34;color&#34;:{&#34;r&#34;:0.035294119268655777,&#34;g&#34;:0.41960784792900085,&#34;b&#34;:0.87058824300765991,&#34;a&#34;:1.0},&#34;position&#34;:0.078985594213008881},{&#34;color&#34;:{&#34;r&#34;:0.050980392843484879,&#34;g&#34;:1.0,&#34;b&#34;:0.31372550129890442,&#34;a&#34;:1.0},&#34;position&#34;:0.41103383898735046},{&#34;color&#34;:{&#34;r&#34;:0.55686277151107788,&#34;g&#34;:0.27843138575553894,&#34;b&#34;:0.99607843160629272,&#34;a&#34;:1.0},&#34;position&#34;:0.50833708047866821},{&#34;color&#34;:{&#34;r&#34;:0.48572319746017456,&#34;g&#34;:0.24577714502811432,&#34;b&#34;:0.99666154384613037,&#34;a&#34;:1.0},&#34;position&#34;:0.79611480236053467},{&#34;color&#34;:{&#34;r&#34;:0.078431375324726105,&#34;g&#34;:0.058823529630899429,&#34;b&#34;:1.0,&#34;a&#34;:1.0},&#34;position&#34;:0.99699169397354126}],&#34;stopsVar&#34;:[],&#34;transform&#34;:{&#34;m00&#34;:27.789470672607422,&#34;m01&#34;:-365.29409790039062,&#34;m02&#34;:222.75230407714844,&#34;m10&#34;:71.029411315917969,&#34;m11&#34;:136.68165588378906,&#34;m12&#34;:-93.355529785156250},&#34;opacity&#34;:1.0,&#34;blendMode&#34;:&#34;NORMAL&#34;,&#34;visible&#34;:true}" mask="url(#path-1-inside-1_1086_6868)"/>
<path d="M16.5 14H11.5488V13.1357H13.5703V8.04297H13.4922L11.5342 9.31738V8.29199L13.5752 6.9541H14.5713V13.1357H16.5V14ZM17.6719 8.97559C17.6719 7.70605 18.6191 6.80762 19.9619 6.80762C21.3047 6.80762 22.2178 7.61816 22.2178 8.80469C22.2178 9.54688 21.8662 10.1523 20.7188 11.3535L19.1465 13.0283V13.1113H22.3301V14H17.7207V13.3018L20.0791 10.7529C20.9922 9.76172 21.2168 9.39062 21.2168 8.8584C21.2168 8.13574 20.709 7.66699 19.9326 7.66699C19.1514 7.66699 18.6338 8.18945 18.6338 8.97559V9.00488H17.6719V8.97559ZM28.7656 11.3193H23.5996V10.4307H28.7656V11.3193ZM30.6797 11.3975V14H29.7959V6.9541H30.8994L32.3301 11.2363H32.3984L33.8242 6.9541H34.9326V14H34.0488V11.3975L34.1318 8.55566H34.0586L32.7402 12.3447H31.9883L30.6699 8.55566H30.5967L30.6797 11.3975ZM40.4893 14H36.6025V13.1162H38.0381V7.83789H36.6025V6.9541H40.4893V7.83789H39.0537V13.1162H40.4893V14ZM43.248 14H42.3447V6.9541H43.292L46.1338 12.2227H46.207V6.9541H47.1104V14H46.1729L43.3213 8.7168H43.248V14ZM50.9092 13.2139C51.8662 13.2139 52.418 12.5791 52.418 11.4805V6.9541H53.4336V11.5439C53.4336 13.1748 52.4912 14.1465 50.9092 14.1465C49.3271 14.1465 48.3848 13.1748 48.3848 11.5439V6.9541H49.4004V11.4805C49.4004 12.5791 49.9521 13.2139 50.9092 13.2139ZM57.5986 14H56.583V7.85742H54.4883V6.9541H59.6934V7.85742H57.5986V14ZM65.499 13.0967V14H61.2607V6.9541H65.499V7.85742H62.2812V9.99121H65.3184V10.8408H62.2812V13.0967H65.499ZM73.2676 6.9541H75.3281C77.3154 6.9541 78.3311 8.13574 78.3311 10.4551C78.3311 12.8086 77.3252 14 75.3281 14H73.2676V6.9541ZM74.2881 7.85742V13.0967H75.2158C76.6318 13.0967 77.291 12.2666 77.291 10.4648C77.291 8.69727 76.6221 7.85742 75.2158 7.85742H74.2881ZM84.0439 13.0967V14H79.8057V6.9541H84.0439V7.85742H80.8262V9.99121H83.8633V10.8408H80.8262V13.0967H84.0439ZM86.3145 11.3975V14H85.4307V6.9541H86.5342L87.9648 11.2363H88.0332L89.459 6.9541H90.5674V14H89.6836V11.3975L89.7666 8.55566H89.6934L88.375 12.3447H87.623L86.3047 8.55566H86.2314L86.3145 11.3975ZM96.7979 11.0361C96.7979 12.9893 95.8066 14.1465 94.1807 14.1465C92.5547 14.1465 91.5635 12.9893 91.5635 11.0361V9.91797C91.5635 7.96484 92.5547 6.80762 94.1807 6.80762C95.8066 6.80762 96.7979 7.96484 96.7979 9.91797V11.0361ZM94.1807 13.2188C95.1865 13.2188 95.7725 12.4473 95.7725 11.0312V9.92285C95.7725 8.50684 95.1865 7.73535 94.1807 7.73535C93.1748 7.73535 92.5889 8.50684 92.5889 9.92285V11.0312C92.5889 12.4473 93.1748 13.2188 94.1807 13.2188Z" fill="#F6F8FA"/>
<defs>
<clipPath id="paint0_angular_1086_6868_clip_path"><path d="M10.5 0.897436H97.5V-0.897436H10.5V0.897436ZM97.5 20.1026H10.5V21.8974H97.5V20.1026ZM10.5 20.1026C5.19665 20.1026 0.897436 15.8033 0.897436 10.5H-0.897436C-0.897436 16.7946 4.20537 21.8974 10.5 21.8974V20.1026ZM107.103 10.5C107.103 15.8033 102.803 20.1026 97.5 20.1026V21.8974C103.795 21.8974 108.897 16.7946 108.897 10.5H107.103ZM97.5 0.897436C102.803 0.897436 107.103 5.19665 107.103 10.5H108.897C108.897 4.20537 103.795 -0.897436 97.5 -0.897436V0.897436ZM10.5 -0.897436C4.20537 -0.897436 -0.897436 4.20537 -0.897436 10.5H0.897436C0.897436 5.19665 5.19665 0.897436 10.5 0.897436V-0.897436Z" mask="url(#path-1-inside-1_1086_6868)"/></clipPath></defs>
</svg>
