<svg width="14" height="14" viewBox="0 0 14 14" fill="none" xmlns="http://www.w3.org/2000/svg">
<path fill-rule="evenodd" clip-rule="evenodd" d="M11.2535 3.44646C11.3682 3.5613 11.4326 3.71698 11.4326 3.8793C11.4326 4.04161 11.3682 4.19728 11.2535 4.31213L5.33266 10.233C5.21781 10.3476 5.06214 10.4121 4.89983 10.4121C4.73752 10.4121 4.58184 10.3476 4.467 10.233L1.81283 7.57879C1.70464 7.46268 1.64574 7.30912 1.64853 7.15043C1.65133 6.99175 1.71561 6.84036 1.82784 6.72813C1.94006 6.61591 2.09146 6.55163 2.25014 6.54883C2.40882 6.54603 2.56238 6.60494 2.6785 6.71313L4.89983 8.93446L10.3878 3.44646C10.5027 3.33176 10.6583 3.26733 10.8207 3.26733C10.9829 3.26733 11.1387 3.33176 11.2535 3.44646Z" fill="#6FDD8B"/>
</svg>
