<svg width="37" height="37" viewBox="0 0 37 37" fill="none" xmlns="http://www.w3.org/2000/svg">
<path d="M17.3594 2.95655C17.7286 1.94808 19.1549 1.94808 19.5241 2.95655L20.626 5.96628C22.3751 10.7439 26.1398 14.5086 30.9174 16.2577L33.9272 17.3596C34.9356 17.7288 34.9356 19.1551 33.9272 19.5243L30.9174 20.6262C26.1398 22.3754 22.3751 26.14 20.626 30.9177L19.5241 33.9274C19.1549 34.9359 17.7286 34.9359 17.3594 33.9274L16.2575 30.9177C14.5084 26.14 10.7437 22.3753 5.96603 20.6262L2.9563 19.5243C1.94783 19.1551 1.94783 17.7288 2.95631 17.3596L5.96603 16.2577C10.7437 14.5086 14.5084 10.7439 16.2575 5.96628L17.3594 2.95655Z" fill="#8250DF"/>
</svg>
