<svg viewBox="0 0 26 20" fill="none" xmlns="http://www.w3.org/2000/svg">
<path d="M25.1895 8.34792C24.5721 7.94159 22.9485 7.76832 21.7686 8.07879C21.7047 6.93015 21.099 5.9618 19.9894 5.11746L19.579 4.84833L19.3054 5.25203C18.7681 6.04975 18.5413 7.11221 18.6214 8.07879C18.6844 8.67422 18.8968 9.34354 19.3054 9.82903C17.7691 10.6998 16.3534 10.5019 10.0832 10.5019H0.402016C0.374116 11.8862 0.60181 14.5476 2.33339 16.7139C2.52509 16.954 2.73476 17.1853 2.96246 17.4078C4.37004 18.786 6.49851 19.7966 9.67997 19.7992C14.5327 19.8036 18.6916 17.2398 21.2215 11.041C22.054 11.0542 24.2508 11.1861 25.3254 9.1562C25.3515 9.1219 25.5999 8.61706 25.5999 8.61706L25.1895 8.34792ZM6.7199 6.9196H3.99835V9.58013H6.7199V6.9196ZM10.2371 6.9196H7.51465V9.58013H10.2371V6.9196ZM13.7543 6.9196H11.0318V9.58013H13.7543V6.9196ZM17.2714 6.9196H14.5489V9.58013H17.2714V6.9196ZM3.20366 6.9196H0.481226V9.58013H3.20278L3.20366 6.9196ZM6.72084 3.55897H3.99835V6.2195H6.72084V3.55897ZM10.238 3.55897H7.51552V6.2195H10.238V3.55897ZM13.7551 3.55897H11.0327V6.2195H13.7551V3.55897ZM13.7543 0.199219H11.0318V2.85975H13.7543V0.199219Z" fill="white"/>
</svg>
